# xmcd CD database file
#
# Track frame offsets:
#	150
#	24495
#	38630
#	56477
#	76805
#	96197
#	126775
#	147380
#	168520
#	190100
#	200920
#	219725
#	240725
#	265957
#	305750
#	321482
#	336292
#
# Disc length: 4632 seconds
#
# Revision: 19
# Processed by: cddbd v1.5.1PL2 Copyright (c) Steve Scherf et al.
# Submitted via: CDex 1.51
#
DISCID=02121611
DTITLE=Stevie Ray Vaughan And Double Trouble - The Essential Stevie Ray Vaughan And Double Trouble (Disc-2)
DYEAR=2002
DGENRE=Blues
TTITLE0=Say What!
TTITLE1=Look At Little Sister
TTITLE2=Change It
TTITLE3=Come On (Part III)
TTITLE4=Life Without You
TTITLE5=Little Wing
TTITLE6=Willie The Wimp (Live)
TTITLE7=Superstition (Live)
TTITLE8=Leave My Girl Alone (Live)
TTITLE9=The House Is Rockin'
TTITLE10=Crossfire
TTITLE11=Tightrope
TTITLE12=Wall Of Denial
TTITLE13=Riviera Paradise
TTITLE14=Telephone Song - The Vaughan Brothers
TTITLE15=Long Way From Home - The Vaughan Brothers
TTITLE16=Life By The Drop
EXTD=YEAR: 2002
EXTT0=
EXTT1=
EXTT2=
EXTT3=
EXTT4=
EXTT5=
EXTT6=
EXTT7=
EXTT8=
EXTT9=
EXTT10=
EXTT11=
EXTT12=
EXTT13=
EXTT14=
EXTT15=
EXTT16=
PLAYORDER=
